<svg version="1.1" xmlns="http://www.w3.org/2000/svg" xmlns:xlink="http://www.w3.org/1999/xlink" width="225.000000pt" height="225.000000pt" viewBox="0,0,256,256"><g fill="#098a5b" fill-rule="nonzero" stroke="none" stroke-width="1" stroke-linecap="butt" stroke-linejoin="miter" stroke-miterlimit="10" stroke-dasharray="" stroke-dashoffset="0" font-family="none" font-weight="none" font-size="none" text-anchor="none" style="mix-blend-mode: normal"><g transform="translate(0.25881,-0.05408) scale(1.13778,1.13778)"><g transform="translate(0,225) scale(0.1,-0.1)"><path d="M1040,2244c-281,-31 -499,-129 -688,-308c-397,-377 -464,-976 -159,-1434c185,-278 477,-453 817,-492c326,-38 656,78 897,313c222,216 335,486 336,797c0,145 -10,218 -50,345c-55,174 -142,316 -277,451c-165,164 -345,261 -571,308c-74,16 -245,27 -305,20zM1718,1587c122,-122 222,-229 222,-237c0,-8 -98,-113 -217,-232l-218,-218h-138c-117,0 -139,2 -144,16c-4,11 52,73 196,218c110,110 201,208 201,216c0,8 -90,105 -200,215c-110,110 -200,207 -200,217c0,24 12,26 150,27l125,1zM1027,1334c4,-11 -52,-73 -196,-218c-110,-110 -201,-208 -201,-216c0,-8 90,-105 200,-215c110,-110 200,-207 200,-216c0,-25 -20,-29 -153,-29h-122l-222,222c-123,123 -223,230 -223,238c0,8 98,113 217,232l218,218h138c117,0 139,-2 144,-16zM1467,1334c4,-11 -74,-95 -278,-300c-156,-156 -288,-284 -294,-284c-16,0 -145,133 -145,150c0,9 98,113 218,233l218,217h137c117,0 139,-2 144,-16z"></path></g></g></g></svg>