<?xml version="1.0" standalone="no"?>
<!DOCTYPE svg PUBLIC "-//W3C//DTD SVG 20010904//EN"
 "http://www.w3.org/TR/2001/REC-SVG-20010904/DTD/svg10.dtd">
<svg version="1.0" xmlns="http://www.w3.org/2000/svg"
 width="225.000000pt" height="225.000000pt" viewBox="0 0 225.000000 225.000000"
 preserveAspectRatio="xMidYMid meet">

<g transform="translate(0.000000,225.000000) scale(0.100000,-0.100000)"
fill="#000000" stroke="none">
<path d="M1040 2244 c-281 -31 -499 -129 -688 -308 -397 -377 -464 -976 -159
-1434 185 -278 477 -453 817 -492 326 -38 656 78 897 313 222 216 335 486 336
797 0 145 -10 218 -50 345 -55 174 -142 316 -277 451 -165 164 -345 261 -571
308 -74 16 -245 27 -305 20z m678 -657 c122 -122 222 -229 222 -237 0 -8 -98
-113 -217 -232 l-218 -218 -138 0 c-117 0 -139 2 -144 16 -4 11 52 73 196 218
110 110 201 208 201 216 0 8 -90 105 -200 215 -110 110 -200 207 -200 217 0
24 12 26 150 27 l125 1 223 -223z m-691 -253 c4 -11 -52 -73 -196 -218 -110
-110 -201 -208 -201 -216 0 -8 90 -105 200 -215 110 -110 200 -207 200 -216 0
-25 -20 -29 -153 -29 l-122 0 -222 222 c-123 123 -223 230 -223 238 0 8 98
113 217 232 l218 218 138 0 c117 0 139 -2 144 -16z m440 0 c4 -11 -74 -95
-278 -300 -156 -156 -288 -284 -294 -284 -16 0 -145 133 -145 150 0 9 98 113
218 233 l218 217 137 0 c117 0 139 -2 144 -16z"/>
</g>
</svg>
